<?xml version="1.0" encoding="UTF-8" standalone="no"?>
<!-- Created with Inkscape (http://www.inkscape.org/) -->

<svg
   width="135.467mm"
   height="135.467mm"
   viewBox="0 0 135.467 135.467"
   version="1.1"
   id="svg1"
   xml:space="preserve"
   inkscape:version="1.4.2 (1:1.4.2+202505120738+ebf0e940d0)"
   sodipodi:docname="favicon.svg"
   xmlns:inkscape="http://www.inkscape.org/namespaces/inkscape"
   xmlns:sodipodi="http://sodipodi.sourceforge.net/DTD/sodipodi-0.dtd"
   xmlns:xlink="http://www.w3.org/1999/xlink"
   xmlns="http://www.w3.org/2000/svg"
   xmlns:svg="http://www.w3.org/2000/svg"><sodipodi:namedview
     id="namedview1"
     pagecolor="#ffffff"
     bordercolor="#000000"
     borderopacity="0.25"
     inkscape:showpageshadow="2"
     inkscape:pageopacity="0.0"
     inkscape:pagecheckerboard="0"
     inkscape:deskcolor="#d1d1d1"
     inkscape:document-units="mm"
     inkscape:zoom="0.62915273"
     inkscape:cx="158.94392"
     inkscape:cy="244.77363"
     inkscape:window-width="1440"
     inkscape:window-height="828"
     inkscape:window-x="0"
     inkscape:window-y="0"
     inkscape:window-maximized="1"
     inkscape:current-layer="layer1" /><defs
     id="defs1"><linearGradient
       id="swatch12"
       inkscape:swatch="solid"><stop
         style="stop-color:#372f2b;stop-opacity:1;"
         offset="0"
         id="stop12" /></linearGradient><linearGradient
       id="swatch11"
       inkscape:swatch="solid"
       gradientTransform="translate(0.02067831,1.4159289)"><stop
         style="stop-color:#cbbfaf;stop-opacity:1;"
         offset="0"
         id="stop11" /></linearGradient><linearGradient
       id="swatch10"
       inkscape:swatch="solid"><stop
         style="stop-color:#5f5cb5;stop-opacity:1;"
         offset="0"
         id="stop10" /></linearGradient><linearGradient
       id="swatch9"
       inkscape:swatch="solid"><stop
         style="stop-color:#8aa869;stop-opacity:1;"
         offset="0"
         id="stop9" /></linearGradient><linearGradient
       inkscape:collect="always"
       xlink:href="#swatch9"
       id="linearGradient9"
       x1="0"
       y1="67.733498"
       x2="135.467"
       y2="67.733498"
       gradientUnits="userSpaceOnUse" /><linearGradient
       inkscape:collect="always"
       xlink:href="#swatch10"
       id="linearGradient10"
       x1="0"
       y1="79.14814"
       x2="135.46718"
       y2="79.14814"
       gradientUnits="userSpaceOnUse" /><linearGradient
       inkscape:collect="always"
       xlink:href="#swatch12"
       id="linearGradient12"
       x1="45.607166"
       y1="67.733498"
       x2="89.859833"
       y2="67.733498"
       gradientUnits="userSpaceOnUse" /><linearGradient
       inkscape:collect="always"
       xlink:href="#swatch11"
       id="linearGradient15"
       gradientUnits="userSpaceOnUse"
       gradientTransform="translate(-0.02066798,-1.4159335)"
       x1="49.677765"
       y1="67.733498"
       x2="85.78923"
       y2="67.733498" /></defs><g
     inkscape:label="Layer 1"
     inkscape:groupmode="layer"
     id="layer1"><rect
       style="fill:url(#linearGradient9);stroke-width:7.99999"
       id="rect1"
       width="135.467"
       height="135.467"
       x="0"
       y="0" /><path
       id="path1"
       style="fill:url(#linearGradient10);stroke-width:7.99999"
       d="M 135.46718,41.408325 118.55039,47.047774 105.50777,49.14377 93.396366,48.91071 77.791634,59.857328 44.951261,63.584233 41.690479,61.48772 37.498486,64.748503 35.868095,67.776225 31.442525,65.680229 20.030302,64.515959 14.207402,61.48772 9.7823486,49.14377 0,44.341479 v 26.688294 l 3.0277222,0.473356 1.6303914,5.58984 2.3290568,2.5616 17.0025796,7.453292 13.508736,2.329057 9.316228,-1.397331 34.237703,-1.39733 15.371672,4.658113 39.043091,25.58759 z" /><path
       id="path2"
       style="fill:url(#swatch12);fill-opacity:1;stroke-width:7.99999"
       d="M 67.733333,7.4098836 A 60.323368,60.323368 0 0 0 7.4098836,67.733333 60.323368,60.323368 0 0 0 67.733333,128.05678 60.323368,60.323368 0 0 0 128.05678,67.733333 60.323368,60.323368 0 0 0 67.733333,7.4098836 Z m 0,5.3572954 A 54.966465,54.966465 0 0 1 122.7,67.733333 54.966465,54.966465 0 0 1 67.733333,122.7 54.966465,54.966465 0 0 1 12.767179,67.733333 54.966465,54.966465 0 0 1 67.733333,12.767179 Z" /><path
       id="circle2"
       style="fill:url(#swatch12);fill-opacity:1;stroke-width:6.1776"
       d="M 67.733333,21.151681 A 46.581749,46.581749 0 0 0 21.151681,67.733333 46.581749,46.581749 0 0 0 67.733333,114.3155 46.581749,46.581749 0 0 0 114.3155,67.733333 46.581749,46.581749 0 0 0 67.733333,21.151681 Z m 0,5.356778 A 41.224846,41.224846 0 0 1 108.95821,67.733333 41.224846,41.224846 0 0 1 67.733333,108.95821 41.224846,41.224846 0 0 1 26.508459,67.733333 41.224846,41.224846 0 0 1 67.733333,26.508459 Z" /><path
       id="rect3"
       style="fill:url(#swatch12);stroke-width:6.66894"
       d="m 70.17904,111.43091 v 22.68159 h -4.891084 v -22.68159 m 0,-86.022214 V 1.3544998 H 70.17904 V 24.49031"
       sodipodi:nodetypes="cccccccc" /><rect
       style="fill:url(#swatch12);fill-opacity:1;stroke-width:6.66894"
       id="rect4"
       width="4.8910842"
       height="132.758"
       x="90.080139"
       y="-41.586819"
       transform="rotate(30)" /><rect
       style="fill:url(#swatch12);fill-opacity:1;stroke-width:6.66894"
       id="rect5"
       width="4.8910842"
       height="132.758"
       x="90.080139"
       y="-91.171181"
       transform="rotate(60)" /><path
       id="rect6"
       style="fill:url(#swatch12);stroke-width:6.66894"
       transform="rotate(90)"
       d="M 70.17904,-24.350576 V -1.3545074 H 65.287956 V -24.944493 m 0,-85.523977 v -23.64403 h 4.891084 v 23.64403"
       sodipodi:nodetypes="cccccccc" /><rect
       style="fill:url(#swatch12);fill-opacity:1;stroke-width:6.66894"
       id="rect7"
       width="4.8910842"
       height="132.758"
       x="22.346636"
       y="-158.90468"
       transform="rotate(120)" /><rect
       style="fill:url(#swatch12);fill-opacity:1;stroke-width:6.66894"
       id="rect8"
       width="4.8910842"
       height="132.758"
       x="-27.237726"
       y="-158.90468"
       transform="rotate(150)" /><rect
       style="fill:url(#linearGradient12);stroke-width:7.99999"
       id="rect9"
       width="44.252663"
       height="43.32103"
       x="45.607166"
       y="46.072983" /><text
       xml:space="preserve"
       style="font-style:normal;font-variant:normal;font-weight:bold;font-stretch:normal;font-size:42.3333px;font-family:Serif;-inkscape-font-specification:'Serif Bold';text-align:center;writing-mode:lr-tb;direction:ltr;text-anchor:middle;fill:url(#swatch11);stroke-width:7.99999"
       x="67.692154"
       y="83.16407"
       id="text9"><tspan
         sodipodi:role="line"
         id="tspan9"
         style="font-style:normal;font-variant:normal;font-weight:bold;font-stretch:normal;font-size:42.3333px;font-family:Serif;-inkscape-font-specification:'Serif Bold';fill:url(#swatch11);fill-opacity:1;stroke-width:8"
         x="67.692154"
         y="83.16407">H</tspan></text></g></svg>
